<svg xmlns="http://www.w3.org/2000/svg" viewBox="0 0 1024 1024" width="1024" height="1024">
  <rect width="1024" height="1024" fill="#f5ead8"></rect>
  <path d="M150 900 C 330 830 240 640 420 590 S 660 520 700 400 S 790 290 820 200" stroke="#ffffff" stroke-width="66" fill="none" stroke-linecap="round"></path>
  <path d="M150 900 C 330 830 240 640 420 590 S 660 520 700 400 S 790 290 820 200" stroke="#c67139" stroke-width="38" fill="none" stroke-linecap="round"></path>
  <g transform="translate(150,900)">
    <circle r="64" fill="#7a8a5e" stroke="#f5ead8" stroke-width="12"></circle>
    <g transform="translate(-30,-30) scale(2.5)" fill="none" stroke="#f0fae1" stroke-width="2.75" stroke-linecap="round" stroke-linejoin="round"><path d="M19 17h2c.6 0 1-.4 1-1v-3c0-.9-.7-1.7-1.5-1.9C18.7 10.6 16 10 16 10s-1.3-1.4-2.2-2.3c-.5-.4-1.1-.7-1.8-.7H5c-.6 0-1.1.4-1.4.9l-1.4 2.9A3.7 3.7 0 0 0 2 12v4c0 .6.4 1 1 1h2"></path><circle cx="7" cy="17" r="2"></circle><path d="M9 17h6"></path><circle cx="17" cy="17" r="2"></circle></g>
  </g>
  <g transform="translate(255,745)">
    <circle r="74" fill="#ffffff" stroke="#c67139" stroke-width="10"></circle>
    <g transform="translate(-33.6,-33.6) scale(2.8)" fill="none" stroke="#c67139" stroke-width="2.75" stroke-linecap="round" stroke-linejoin="round"><circle cx="12" cy="12" r="4"></circle><path d="M12 2v2M12 20v2M4.9 4.9l1.4 1.4M17.7 17.7l1.4 1.4M2 12h2M20 12h2M4.9 19.1l1.4-1.4M17.7 6.3l1.4-1.4"></path></g>
  </g>
  <g transform="translate(455,585)">
    <circle r="74" fill="#ffffff" stroke="#7a8a5e" stroke-width="10"></circle>
    <g transform="translate(-33.6,-37) scale(2.8)" fill="none" stroke="#7a8a5e" stroke-width="2.75" stroke-linecap="round" stroke-linejoin="round"><path d="M4 13.9A7 7 0 1 1 15.7 7h1.8a4.5 4.5 0 0 1 2.5 8.2"></path><path d="M8 14.5v3M16 14.5v3M12 16.5v3"></path><path d="M8 20.6h.01M12 22.6h.01M16 20.6h.01"></path></g>
  </g>
  <g transform="translate(650,455)">
    <circle r="74" fill="#ffffff" stroke="#c67139" stroke-width="10"></circle>
    <g transform="translate(-33.6,-33.6) scale(2.8)" fill="none" stroke="#c67139" stroke-width="2.75" stroke-linecap="round" stroke-linejoin="round"><path d="M4 8h9a3 3 0 1 0-3-3M2 12h15a3 3 0 1 1-3 3M4 16h7a3 3 0 1 1-3 3"></path></g>
  </g>
  <g transform="translate(760,315)">
    <circle r="74" fill="#ffffff" stroke="#7a8a5e" stroke-width="10"></circle>
    <g transform="translate(-33.6,-33.6) scale(2.8)" fill="none" stroke="#7a8a5e" stroke-width="2.75" stroke-linecap="round" stroke-linejoin="round"><path d="M21 4H3M18 8H6M15 12H9M13 16h-2M11.5 20h-.5"></path></g>
  </g>
  <g transform="translate(845,150) scale(0.85)">
    <path d="M0 96 C -52 34 -84 -6 -84 -54 A 84 84 0 1 1 84 -54 C 84 -6 52 34 0 96 Z" fill="#c67139"></path>
    <g transform="translate(-33.6,-88) scale(2.8)" fill="none" stroke="#f5ead8" stroke-width="2.75" stroke-linecap="round" stroke-linejoin="round"><path d="M3 10.5 12 3l9 7.5"></path><path d="M5 9.5V21h14V9.5"></path><path d="M10 21v-6h4v6"></path></g>
  </g>
</svg>