<svg xmlns="http://www.w3.org/2000/svg" viewBox="0 0 512 512">
<defs><linearGradient id="r" x1="0" y1="0" x2="0" y2="1"><stop offset="0" stop-color="#F47272"></stop><stop offset="1" stop-color="#CF3131"></stop></linearGradient></defs>
<polyline points="78,456 146,394 300,352 272,214 392,150 444,112" fill="none" stroke="#24466B" stroke-width="26" stroke-linecap="round" stroke-linejoin="round"></polyline>
<polyline points="78,456 146,394 300,352 272,214 392,150 444,112" fill="none" stroke="#FFF" stroke-width="4.5" stroke-dasharray="17 15" stroke-linecap="round" opacity=".9"></polyline>
<circle cx="58" cy="470" r="16" fill="none" stroke="#24466B" stroke-width="10"></circle>
<image x="98" y="346" width="96" height="96"></image>
<image x="252" y="304" width="96" height="96"></image>
<image x="224" y="166" width="96" height="96"></image>
<image x="344" y="102" width="96" height="96"></image>
<g transform="translate(384,6) scale(1.875)"><path d="M32 4 C18 4 8 14.5 8 27 C8 41 32 60 32 60 C32 60 56 41 56 27 C56 14.5 46 4 32 4 Z" fill="url(#r)"></path><circle cx="32" cy="26" r="9.5" fill="#FFF"></circle></g>
</svg>